IKResults
version=1
nRows=14
nColumns=40
inDegrees=yes

Units are S.I. units (second, meters, Newtons, ...)
Angles are in degrees.

endheader
time	pelvis_tilt	pelvis_list	pelvis_rotation	pelvis_tx	pelvis_ty	pelvis_tz	hip_flexion_r	hip_adduction_r	hip_rotation_r	knee_angle_r	knee_angle_r_beta	ankle_angle_r	subtalar_angle_r	mtp_angle_r	hip_flexion_l	hip_adduction_l	hip_rotation_l	knee_angle_l	knee_angle_l_beta	ankle_angle_l	subtalar_angle_l	mtp_angle_l	lumbar_extension	lumbar_bending	lumbar_rotation	arm_flex_r	arm_add_r	arm_rot_r	elbow_flex_r	pro_sup_r	wrist_flex_r	wrist_dev_r	arm_flex_l	arm_add_l	arm_rot_l	elbow_flex_l	pro_sup_l	wrist_flex_l	wrist_dev_l
      0.00000000	     11.74355922	      1.27517749	      5.15337177	     -0.97954438	      0.93197941	     -0.99667644	     11.15386056	      0.07911523	    -11.13254744	    -49.01597060	     -0.85549007	      6.51406459	     -7.73339675	     -5.68504833	    -18.01449590	      3.45097619	      9.23689014	    -12.96070162	     -0.22620692	     14.17039871	     -3.12967714	    -11.09406131	    -23.84070726	      0.28917292	     -4.54809023	     -7.96394464	    -11.47430803	     -1.58683376	     27.92845026	     89.95437384	      0.00000000	      0.00000000	      7.52587841	     12.32939250	      8.85164939	     25.69829791	     89.95437384	      0.00000000	      0.00000000
      0.01000000	     11.77238730	      1.01233673	      5.01455631	     -0.96990497	      0.93051215	     -0.99854349	     11.91555865	     -0.03579728	    -12.04137341	    -47.10257845	     -0.82209508	      6.78017236	     -7.41624277	     -5.65981361	    -18.77354248	      3.53732072	      9.32574669	    -12.83664124	     -0.22404165	     14.65085824	     -2.78883631	    -10.97797680	    -23.94522405	      0.54884580	     -4.80249452	     -8.26557915	    -11.37377682	     -1.88746629	     27.19922045	     89.95437384	      0.00000000	      0.00000000	      8.40319875	     12.58973712	      8.94034045	     27.28239012	     89.95437384	      0.00000000	      0.00000000
      0.02000000	     11.38902537	      1.04173934	      4.65877255	     -0.96054867	      0.92823500	     -1.00036308	     13.32718430	     -0.55846961	    -12.80142417	    -45.61657386	     -0.79615941	      6.81889829	     -7.26643737	     -5.51923732	    -18.93682880	      3.21163508	      9.57625605	    -13.04141791	     -0.22761568	     14.86007810	     -2.65490279	    -10.79355418	    -23.65349142	      0.43671155	     -4.82652548	     -8.82854550	    -11.40309416	     -1.87388445	     26.79222805	     89.95437384	      0.00000000	      0.00000000	      9.55534731	     12.77316819	      8.99584013	     28.49965153	     89.95437384	      0.00000000	      0.00000000
      0.03000000	     11.55015022	      0.48431362	      4.91948051	     -0.95059732	      0.92679603	     -1.00210750	     13.68540842	     -0.31395044	    -14.11382615	    -43.30328014	     -0.75578482	      6.48244342	     -6.93252470	     -5.36589170	    -19.75223251	      3.73028487	      9.08382697	    -13.01351531	     -0.22712869	     15.68653492	     -2.03861410	    -10.75031482	    -23.87846538	      1.11330776	     -5.38522191	     -8.88930134	    -11.16364851	     -2.48097861	     25.65587967	     89.95437384	      0.00000000	      0.00000000	     10.14340766	     13.20042661	      8.95098815	     30.66075016	     89.95437384	      0.00000000	      0.00000000
      0.04000000	     11.44900290	      0.26278821	      4.84133226	     -0.94073107	      0.92469244	     -1.00373423	     14.50875435	     -0.52781919	    -15.29543665	    -41.39174513	     -0.72242224	      5.90735344	     -6.60544012	     -5.13869019	    -20.26603481	      3.76201437	      8.78474132	    -13.15129479	     -0.22953339	     16.24544592	     -1.38171654	    -10.63218164	    -23.85074860	      1.35547474	     -5.58791506	     -9.28419698	    -11.11265628	     -2.62520796	     24.87156451	     89.95437384	      0.00000000	      0.00000000	     11.05565587	     13.47355090	      8.96966415	     32.33090767	     89.95437384	      0.00000000	      0.00000000
      0.05000000	     11.09442827	      0.26659408	      4.57728947	     -0.93080778	      0.92209144	     -1.00541271	     15.63562234	     -0.96478047	    -16.24597073	    -39.58648997	     -0.69091459	      5.41699770	     -6.28027122	     -4.94834841	    -20.52247827	      3.48603430	      8.82113492	    -13.27631206	     -0.23171536	     16.72494781	     -1.08110270	    -10.50568763	    -23.55750635	      1.30846725	     -5.64390408	     -9.77040949	    -11.11611545	     -2.71434053	     24.23857259	     89.95437384	      0.00000000	      0.00000000	     12.03409491	     13.69393164	      8.93673499	     33.85141802	     89.95437384	      0.00000000	      0.00000000
      0.06000000	     11.18566577	     -0.17687047	      4.67912532	     -0.92045596	      0.92017794	     -1.00682743	     15.97999353	     -0.89484563	    -17.84332914	    -37.29440834	     -0.65091022	      4.50756666	     -5.62815509	     -4.73522141	    -21.15435198	      3.85120379	      8.08037196	    -13.61380864	     -0.23760578	     17.43574552	     -0.16877173	    -10.44986023	    -23.72843923	      1.83618378	     -5.87822976	     -9.98076127	    -10.97566025	     -3.20405803	     23.13529208	     89.95437384	      0.00000000	      0.00000000	     12.77921027	     13.96869027	      8.95892474	     35.82789191	     89.95437384	      0.00000000	      0.00000000
      0.07000000	     11.04139384	     -0.49743077	      4.75070206	     -0.90992796	      0.91766586	     -1.00838211	     16.58606794	     -0.95635649	    -19.32788934	    -35.13113271	     -0.61315394	      3.88434844	     -4.95009068	     -4.61532201	    -21.93780550	      4.00284380	      7.50437235	    -13.19355230	     -0.23027093	     17.98563285	      0.82560386	    -10.37613496	    -23.60187870	      2.22635960	     -6.06204197	    -10.42332409	    -10.91678809	     -3.72870730	     22.38121378	     89.95437384	      0.00000000	      0.00000000	     13.62012448	     14.19127265	      8.92795397	     37.55014148	     89.95437384	      0.00000000	      0.00000000
      0.08000000	     11.02255351	     -0.81044998	      4.79474274	     -0.89948264	      0.91540302	     -1.00987470	     16.99846222	     -1.00188465	    -20.84225073	    -32.93326706	     -0.57479394	      3.13718476	     -3.71878034	     -4.64258328	    -22.61525849	      4.14976751	      6.39219606	    -13.30998216	     -0.23230301	     18.49762516	      2.12220768	    -10.23845199	    -23.67410603	      2.63894722	     -6.17628993	    -10.81425154	    -10.87940646	     -4.16387444	     21.66752317	     89.95437384	      0.00000000	      0.00000000	     14.47871481	     14.35498294	      8.90117768	     39.35658866	     89.95437384	      0.00000000	      0.00000000
      0.09000000	     10.81614972	     -1.06493093	      4.76284359	     -0.88853705	      0.91268274	     -1.01109587	     17.61486806	     -1.07355834	    -22.23949218	    -30.85794096	     -0.53857267	      2.46294961	     -2.16543525	     -4.83929869	    -23.12224493	      4.28536621	      5.91043263	    -13.44868678	     -0.23472386	     19.10128401	      2.88011324	    -10.15995011	    -23.45287863	      2.92958064	     -6.30559467	    -11.20386411	    -10.84856560	     -4.46964635	     20.82613113	     89.95437384	      0.00000000	      0.00000000	     15.20754887	     14.59949776	      8.77034075	     41.11426274	     89.95437384	      0.00000000	      0.00000000
      0.10000000	     10.65365258	     -1.37797389	      4.80092547	     -0.87761093	      0.91007699	     -1.01213168	     18.08368326	     -1.01883645	    -23.63779851	    -28.76300392	     -0.50200912	      1.63316485	     -0.27937442	     -5.27570230	    -23.63183827	      4.53959937	      5.17660077	    -13.66591316	     -0.23851518	     19.52329180	      3.56068780	    -10.12361438	    -23.32795686	      3.31147217	     -6.44453655	    -11.60070351	    -10.84072961	     -4.79410397	     20.12090563	     89.95437384	      0.00000000	      0.00000000	     15.96208452	     14.74343175	      8.87485366	     42.84946668	     89.95437384	      0.00000000	      0.00000000
      0.11000000	     10.51344479	     -1.77509946	      4.92065440	     -0.86635000	      0.90740219	     -1.01330260	     18.50049032	     -0.91562871	    -25.19519031	    -26.86848147	     -0.46894347	      0.89471012	      1.92610636	     -5.93373843	    -24.19721004	      4.96132492	      4.67103032	    -13.85792284	     -0.24186638	     19.87619182	      3.87671926	    -10.11217666	    -23.15699355	      3.80386400	     -6.57001566	    -12.02460187	    -10.84810662	     -5.11918508	     19.40358468	     89.95437384	      0.00000000	      0.00000000	     16.65598805	     14.88052786	      8.78239509	     44.57410144	     89.95437384	      0.00000000	      0.00000000
      0.12000000	     10.42382709	     -2.11145389	      5.08136797	     -0.85490084	      0.90487980	     -1.01436065	     18.82245436	     -0.83286916	    -26.69284277	    -25.17133031	     -0.43932259	      0.36918411	      4.20265280	     -6.76458287	    -24.72407098	      5.38571739	      4.17015780	    -14.20855773	     -0.24798611	     20.13618857	      3.96320752	    -10.16209415	    -23.06749170	      4.25623537	     -6.80340186	    -12.37106108	    -10.86014985	     -5.45489761	     18.70018954	     89.95437384	      0.00000000	      0.00000000	     17.25660515	     15.06209239	      8.70523513	     46.34795115	     89.95437384	      0.00000000	      0.00000000
      0.13000000	     10.19296492	     -2.24425201	      5.03704434	     -0.84331285	      0.90223769	     -1.01503895	     19.35682356	     -0.73194958	    -27.04294702	    -23.80181683	     -0.41542007	      0.32342414	      5.45057601	     -7.03674706	    -25.02961839	      5.52360277	      3.80413604	    -14.76469995	     -0.25769263	     20.30525615	      4.01700157	    -10.15664934	    -22.82946292	      4.38012597	     -6.93453386	    -12.67246868	    -10.83046442	     -5.65343387	     17.95640805	     89.95437384	      0.00000000	      0.00000000	     17.77808816	     15.32775235	      8.49847370	     48.11423170	     89.95437384	      0.00000000	      0.00000000
